<svg xmlns="http://www.w3.org/2000/svg" width="42.857" height="40" viewBox="0 0 42.857 40">
  <path id="Контур_3" data-name="Контур 3" d="M21.429-34.286l21.429,8.571v2.857H40a1.326,1.326,0,0,1-.458,1,1.539,1.539,0,0,1-1.083.424H4.4a1.539,1.539,0,0,1-1.083-.424,1.326,1.326,0,0,1-.458-1H0v-2.857ZM5.714-20h5.714V-2.857h2.857V-20H20V-2.857h2.857V-20h5.714V-2.857h2.857V-20h5.714V-2.857H38.46a1.539,1.539,0,0,1,1.083.424,1.326,1.326,0,0,1,.458,1V0H2.857V-1.429a1.326,1.326,0,0,1,.458-1A1.539,1.539,0,0,1,4.4-2.857H5.714Zm35.6,21.429a1.539,1.539,0,0,1,1.083.424,1.326,1.326,0,0,1,.458,1V5.714H0V2.857a1.326,1.326,0,0,1,.458-1A1.539,1.539,0,0,1,1.54,1.429Z" transform="translate(0 34.286)" fill="#1c1c1c"/>
</svg>
