<svg xmlns="http://www.w3.org/2000/svg" xmlns:xlink="http://www.w3.org/1999/xlink"><symbol id="icon-logo" viewBox="0 0 42.857 40"><path data-name="Контур 3" d="M21.429 0l21.429 8.571v2.857H40a1.326 1.326 0 01-.458 1 1.539 1.539 0 01-1.083.424H4.4a1.539 1.539 0 01-1.083-.424 1.326 1.326 0 01-.458-1H0V8.571zM5.714 14.286h5.714v17.143h2.857V14.286H20v17.143h2.857V14.286h5.714v17.143h2.857V14.286h5.714v17.143h1.318a1.539 1.539 0 011.083.424 1.326 1.326 0 01.458 1v1.433H2.857v-1.429a1.326 1.326 0 01.458-1 1.539 1.539 0 011.085-.428h1.314zm35.6 21.429a1.539 1.539 0 011.083.424 1.326 1.326 0 01.458 1V40H0v-2.857a1.326 1.326 0 01.458-1 1.539 1.539 0 011.082-.428z"/></symbol> <view id="icon-logo-view-blue" viewBox="0 0 42.857 40"/><view id="icon-logo-view-dark" viewBox="0 50 42.857 40"/><view id="icon-logo-view-white" viewBox="0 100 42.857 40"/> <use xlink:href="#icon-logo" x="0" y="0" width="42.857" height="40" style="fill:#638bf5"/><use xlink:href="#icon-logo" x="0" y="50" width="42.857" height="40" style="fill:#46557b"/><use xlink:href="#icon-logo" x="0" y="100" width="42.857" height="40" style="fill:#ffffff"/></svg>